<?xml version="1.0" encoding="utf-8"?>
<!-- Generator: Adobe Illustrator 19.1.0, SVG Export Plug-In . SVG Version: 6.00 Build 0)  -->
<svg version="1.1" id="Camada_1" xmlns="http://www.w3.org/2000/svg" xmlns:xlink="http://www.w3.org/1999/xlink" x="0px" y="0px"
	 viewBox="0 0 519.8 412.7" style="enable-background:new 0 0 519.8 412.7;" xml:space="preserve">
<style type="text/css">
	.st0{fill:#FFFFFF;}
	.st1{fill-rule:evenodd;clip-rule:evenodd;fill:#FFFFFF;}
</style>
<g>
	<g id="XMLID_152_">
		<path id="XMLID_215_" class="st0" d="M171.4,359.6h11.8v3.5h-4v20.9h-3.8V363h-4V359.6z"/>
		<path id="XMLID_213_" class="st0" d="M194.3,369.8h5.3v3.5h-5.3v7.1h6.6v3.5h-10.5v-24.4H201v3.5h-6.6V369.8z"/>
		<path id="XMLID_211_" class="st0" d="M220,374.9v3.2c0,3.9-2,6.1-5.7,6.1c-3.8,0-5.7-2.2-5.7-6.1v-12.7c0-3.9,2-6.1,5.7-6.1
			c3.8,0,5.7,2.2,5.7,6.1v2.4h-3.6v-2.6c0-1.7-0.8-2.4-2-2.4c-1.2,0-2,0.7-2,2.4v13.2c0,1.7,0.8,2.4,2,2.4c1.2,0,2-0.6,2-2.4v-3.5
			H220z"/>
		<path id="XMLID_208_" class="st0" d="M231.3,366.3v17.7h-3.4v-24.4h4.8l3.9,14.6v-14.6h3.4v24.4h-3.9L231.3,366.3z"/>
		<path id="XMLID_171_" class="st0" d="M248.1,365.4c0-3.9,2.1-6.1,5.8-6.1c3.8,0,5.8,2.2,5.8,6.1v12.7c0,3.9-2.1,6.1-5.8,6.1
			c-3.8,0-5.8-2.2-5.8-6.1V365.4z M251.9,378.3c0,1.7,0.8,2.4,2,2.4c1.2,0,2-0.7,2-2.4v-13.2c0-1.7-0.8-2.4-2-2.4
			c-1.2,0-2,0.7-2,2.4V378.3z"/>
		<path id="XMLID_169_" class="st0" d="M267.7,359.6h3.8v20.9h6.3v3.5h-10.1V359.6z"/>
		<path id="XMLID_160_" class="st0" d="M284.8,365.4c0-3.9,2.1-6.1,5.8-6.1c3.8,0,5.8,2.2,5.8,6.1v12.7c0,3.9-2.1,6.1-5.8,6.1
			c-3.8,0-5.8-2.2-5.8-6.1V365.4z M288.6,378.3c0,1.7,0.8,2.4,2,2.4c1.2,0,2-0.7,2-2.4v-13.2c0-1.7-0.8-2.4-2-2.4
			c-1.2,0-2,0.7-2,2.4V378.3z"/>
		<path id="XMLID_158_" class="st0" d="M310.2,370.4h5.4v7.7c0,3.9-2,6.1-5.7,6.1c-3.8,0-5.7-2.2-5.7-6.1v-12.7c0-3.9,2-6.1,5.7-6.1
			c3.8,0,5.7,2.2,5.7,6.1v2.4H312v-2.6c0-1.7-0.8-2.4-2-2.4c-1.2,0-2,0.7-2,2.4v13.2c0,1.7,0.8,2.4,2,2.4c1.2,0,2-0.6,2-2.4v-4.5
			h-1.7V370.4z"/>
		<path id="XMLID_156_" class="st0" d="M323.7,359.6h3.8v24.4h-3.8V359.6z"/>
		<path id="XMLID_153_" class="st0" d="M348.3,383.9h-3.9l-0.7-4.4H339l-0.7,4.4h-3.5l3.9-24.4h5.6L348.3,383.9z M339.5,376.2h3.7
			l-1.8-12.3L339.5,376.2z"/>
	</g>
	<g>
		<g id="XMLID_95_">
			<g>
				<g id="XMLID_37_">
					<rect id="XMLID_40_" x="227.2" y="69.8" class="st0" width="18.6" height="17.1"/>
					<polygon id="XMLID_38_" class="st0" points="266.7,158.5 266.7,117.4 278.7,117.4 278.7,103.2 266.7,103.2 266.7,69.9 
						248.1,69.9 248.1,103.2 238.7,103.2 238.7,117.4 248.1,117.4 248.1,177.2 295.8,177.2 295.8,158.5 					"/>
				</g>
				<polygon id="XMLID_36_" class="st0" points="236.4,119.8 236.4,100.9 245.7,100.9 245.7,89.2 227.2,89.2 227.2,177.1 
					245.7,177.1 245.7,119.8 				"/>
			</g>
		</g>
		<path id="XMLID_46_" class="st1" d="M186.2,86.1l72.5-41.8l0-15.8L171.4,79c-0.7,32.8,0.7,65.6,0,98.2l14.8-8.3
			C186.8,141.5,185.6,113.6,186.2,86.1z"/>
		<path id="XMLID_39_" class="st1" d="M258.8,210.9l-72.5-40.4l-14.8,8.2l88.2,49c28.5-16.3,60.1-32,88.4-48.2l-14.9-8.2
			C309.4,184.9,282.6,197.3,258.8,210.9z"/>
		<path id="XMLID_9_" class="st1" d="M333.2,86.1l-72.5-41.8l0-15.8L348.1,79c0.7,32.8-0.7,65.6,0,98.2l-14.8-8.3
			C332.7,141.5,333.8,113.6,333.2,86.1z"/>
	</g>
	<g>
		<g id="XMLID_217_">
			<g>
				<path id="XMLID_17_" class="st0" d="M35.8,249.3h19.2v96H35.8V249.3z"/>
			</g>
		</g>
		<g>
			<path id="XMLID_1381_" class="st0" d="M117,299.1v-51.8h19.5v97.2l-58.3-52v52H58.7v-97.2L117,299.1z"/>
			<path id="XMLID_1379_" class="st0" d="M353.2,247.6v38.3v19.5c0,10.8-3.8,20-11.5,27.7c-7.7,7.7-16.9,11.5-27.6,11.5
				c-10.8,0-20-3.8-27.7-11.5c-7.7-7.7-11.5-16.9-11.5-27.7v-19.5v-38.3h19.6v38.3v17.5v2c0,5.4,1.9,9.9,5.7,13.7
				c3.8,3.8,8.4,5.7,13.7,5.7c5.3,0,9.9-1.9,13.7-5.7c3.9-3.8,5.8-8.4,5.8-13.7v-2v-17.5v-38.3H353.2z"/>
			<g id="XMLID_1376_">
				<path id="XMLID_1378_" class="st0" d="M278.6,325.1h-37.7v-78h-18v97.3l77.9-0.2C296.9,342.3,285.4,337.1,278.6,325.1z"/>
				<path id="XMLID_1377_" class="st0" d="M303.6,325.2v-0.1h-0.2C303.5,325.1,303.5,325.1,303.6,325.2z"/>
			</g>
			<path id="XMLID_1373_" class="st0" d="M379.2,247.6c13.3,0,25.9,4.8,35.4,14.3c17.4,17.4,17.4,51.2,0,68.5
				c-9.5,9.5-22.1,14.2-35.4,14.2h-24v-96.9L379.2,247.6L379.2,247.6z M379.3,325.1c8,0,15.3-2.2,21-7.9c5.7-5.7,7.9-13.1,7.9-21.2
				c0-8-2.2-15.4-8-21.2c-5.7-5.7-13.1-8-21.1-8h-4.5v58.2H379.3L379.3,325.1z"/>
			<g id="XMLID_1371_">
				<path id="XMLID_1372_" class="st0" d="M483.9,265.1v-18h-58v28.3c5,12.9,5,28.6,0,41.4v28.3h19.1h38.9v-20h-38v-19h27v-21h-27
					v-20H483.9z"/>
			</g>
			<g id="XMLID_1369_">
				<path id="XMLID_1370_" class="st0" d="M212.4,325.1L212.4,325.1h-30.2c-7.9,0-14.6-2.8-20.2-8.4c-5.7-5.7-8.6-12.6-8.6-20.7
					c0-8.1,2.9-15,8.6-20.7s12.7-8.7,20.8-8.7c8,0,15,2.9,20.8,8.7l13.9-13.9c-18-14.5-34.7-13.9-34.7-13.9
					c-13.5,0-25.9,4.2-35.5,13.8c-3.4,3.5-5.3,7.2-9.3,11.1v47.2c4,4,5.9,7.7,9.3,11.1c9.6,9.6,21.5,14.1,35,14.1
					c0.8,0,38.7,0.1,38.7,0.1v-19.8H212.4z"/>
			</g>
		</g>
	</g>
</g>
</svg>
