<?xml version="1.0" encoding="utf-8"?>
<!-- Generator: Adobe Illustrator 19.1.0, SVG Export Plug-In . SVG Version: 6.00 Build 0)  -->
<svg version="1.1" id="Camada_1" xmlns="http://www.w3.org/2000/svg" xmlns:xlink="http://www.w3.org/1999/xlink" x="0px" y="0px"
	 viewBox="0 0 765.3 223.6" style="enable-background:new 0 0 765.3 223.6;" xml:space="preserve">
<style type="text/css">
	.st0{fill:#FFFFFF;}
	.st1{fill-rule:evenodd;clip-rule:evenodd;fill:#FFFFFF;}
</style>
<g>
	<g id="XMLID_223_">
		<g>
			<g id="XMLID_38_">
				<rect id="XMLID_40_" x="94.6" y="53.6" class="st0" width="18.6" height="17.1"/>
				<polygon id="XMLID_39_" class="st0" points="134.1,142.2 134.1,101.2 146.2,101.2 146.2,87 134.1,87 134.1,53.7 115.5,53.7 
					115.5,87 106.2,87 106.2,101.2 115.5,101.2 115.5,160.9 163.2,160.9 163.2,142.2 				"/>
			</g>
			<polygon id="XMLID_36_" class="st0" points="103.9,103.5 103.9,84.6 113.2,84.6 113.2,73 94.6,73 94.6,160.8 113.2,160.8 
				113.2,103.5 			"/>
		</g>
	</g>
	<path id="XMLID_221_" class="st1" d="M53.7,69.8L126.2,28l0-15.8L38.9,62.7c-0.7,32.8,0.7,65.6,0,98.2l14.8-8.3
		C54.3,125.3,53.1,97.3,53.7,69.8z"/>
	<path id="XMLID_218_" class="st1" d="M126.2,194.7l-72.5-40.4l-14.8,8.2l88.2,49c28.5-16.3,60.1-32,88.4-48.2l-14.9-8.2
		C176.9,168.6,150.1,181,126.2,194.7z"/>
	<path id="XMLID_204_" class="st1" d="M200.7,69.8L128.2,28l0-15.8l87.4,50.5c0.7,32.8-0.7,65.6,0,98.2l-14.8-8.3
		C200.1,125.3,201.3,97.3,200.7,69.8z"/>
	<g>
		<g id="XMLID_263_">
			<g>
				<path id="XMLID_17_" class="st0" d="M222.5,62.7h19.2v96.9h-19.2V62.7z"/>
			</g>
		</g>
		<g id="XMLID_237_">
			<path id="XMLID_261_" class="st0" d="M357.8,174.6h11.8v3.5h-4V199h-3.8v-20.9h-4V174.6z"/>
			<path id="XMLID_259_" class="st0" d="M380.7,184.9h5.3v3.5h-5.3v7.1h6.6v3.5h-10.5v-24.4h10.5v3.5h-6.6V184.9z"/>
			<path id="XMLID_257_" class="st0" d="M406.4,189.9v3.2c0,3.9-2,6.1-5.7,6.1c-3.8,0-5.7-2.2-5.7-6.1v-12.7c0-3.9,2-6.1,5.7-6.1
				c3.8,0,5.7,2.2,5.7,6.1v2.4h-3.6v-2.6c0-1.7-0.8-2.4-2-2.4c-1.2,0-2,0.7-2,2.4v13.2c0,1.7,0.8,2.4,2,2.4c1.2,0,2-0.6,2-2.4v-3.5
				H406.4z"/>
			<path id="XMLID_254_" class="st0" d="M417.7,181.3V199h-3.4v-24.4h4.8l3.9,14.6v-14.6h3.4V199h-3.9L417.7,181.3z"/>
			<path id="XMLID_251_" class="st0" d="M434.4,180.4c0-3.9,2.1-6.1,5.8-6.1c3.8,0,5.8,2.2,5.8,6.1v12.7c0,3.9-2.1,6.1-5.8,6.1
				c-3.8,0-5.8-2.2-5.8-6.1V180.4z M438.3,193.4c0,1.7,0.8,2.4,2,2.4c1.2,0,2-0.7,2-2.4v-13.2c0-1.7-0.8-2.4-2-2.4
				c-1.2,0-2,0.7-2,2.4V193.4z"/>
			<path id="XMLID_249_" class="st0" d="M454.1,174.6h3.8v20.9h6.3v3.5h-10.1V174.6z"/>
			<path id="XMLID_246_" class="st0" d="M471.2,180.4c0-3.9,2.1-6.1,5.8-6.1c3.8,0,5.8,2.2,5.8,6.1v12.7c0,3.9-2.1,6.1-5.8,6.1
				c-3.8,0-5.8-2.2-5.8-6.1V180.4z M475,193.4c0,1.7,0.8,2.4,2,2.4c1.2,0,2-0.7,2-2.4v-13.2c0-1.7-0.8-2.4-2-2.4c-1.2,0-2,0.7-2,2.4
				V193.4z"/>
			<path id="XMLID_244_" class="st0" d="M496.6,185.4h5.4v7.7c0,3.9-2,6.1-5.7,6.1c-3.8,0-5.7-2.2-5.7-6.1v-12.7
				c0-3.9,2-6.1,5.7-6.1c3.8,0,5.7,2.2,5.7,6.1v2.4h-3.6v-2.6c0-1.7-0.8-2.4-2-2.4c-1.2,0-2,0.7-2,2.4v13.2c0,1.7,0.8,2.4,2,2.4
				c1.2,0,2-0.6,2-2.4v-4.5h-1.7V185.4z"/>
			<path id="XMLID_241_" class="st0" d="M510,174.6h3.8V199H510V174.6z"/>
			<path id="XMLID_238_" class="st0" d="M534.6,199h-3.9l-0.7-4.4h-4.7l-0.7,4.4h-3.5l3.9-24.4h5.6L534.6,199z M525.9,191.2h3.7
				l-1.8-12.3L525.9,191.2z"/>
		</g>
		<g>
			<path id="XMLID_202_" class="st0" d="M303.6,114.2V62.4h19.5v97.2l-58.3-52v52h-19.5V62.4L303.6,114.2z"/>
			<path id="XMLID_129_" class="st0" d="M539.9,62.6v38.3v19.5c0,10.8-3.8,20-11.5,27.7c-7.7,7.7-16.9,11.5-27.6,11.5
				c-10.8,0-20-3.8-27.7-11.5c-7.7-7.7-11.5-16.9-11.5-27.7v-19.5V62.6h19.6v38.3v17.5v2c0,5.4,1.9,9.9,5.7,13.7
				c3.8,3.8,8.4,5.7,13.7,5.7c5.3,0,9.9-1.9,13.7-5.7c3.9-3.8,5.8-8.4,5.8-13.7v-2v-17.5V62.6H539.9z"/>
			<g id="XMLID_126_">
				<path id="XMLID_128_" class="st0" d="M465.1,140.2h-37.6v-78h-18v97.3l77.8-0.2C483.4,157.4,471.9,152.2,465.1,140.2z"/>
				<path id="XMLID_127_" class="st0" d="M490,140.2v-0.1h-0.2C489.9,140.1,490,140.2,490,140.2z"/>
			</g>
			<path id="XMLID_116_" class="st0" d="M565.8,62.6c13.3,0,25.9,4.8,35.4,14.3c17.4,17.4,17.4,51.2,0,68.5
				c-9.5,9.5-22.1,14.2-35.4,14.2h-24V62.6L565.8,62.6L565.8,62.6z M566,140.1c8,0,15.3-2.2,21-7.9c5.7-5.7,7.9-13.1,7.9-21.2
				c0-8-2.2-15.4-8-21.2c-5.7-5.7-13.1-8-21.1-8h-4.5v58.2H566L566,140.1z"/>
			<g id="XMLID_42_">
				<path id="XMLID_115_" class="st0" d="M670.5,80.2v-18h-58v28.2c5,12.9,5,28.6,0,41.4v28.3h19h39v-20h-38v-19h27v-21h-27v-20
					H670.5z"/>
			</g>
			<g id="XMLID_3_">
				<path id="XMLID_37_" class="st0" d="M398.8,140.2L398.8,140.2h-30.2c-7.9,0-14.6-2.8-20.2-8.4c-5.7-5.7-8.6-12.6-8.6-20.7
					c0-8.1,2.9-15,8.6-20.8c5.7-5.8,12.7-8.7,20.8-8.7c8,0,15,2.9,20.8,8.7l13.9-13.9c-18-14.5-34.7-13.9-34.7-13.9
					c-13.5,0-25.9,4.2-35.5,13.8c-3.4,3.5-5.3,7.2-9.3,11.1v47.2c4,4,5.8,7.7,9.3,11.1c9.6,9.6,21.6,14.1,35.1,14.1
					c0.8,0,38.7,0.1,38.7,0.1v-19.8H398.8z"/>
			</g>
		</g>
	</g>
</g>
</svg>
